<svg xmlns="http://www.w3.org/2000/svg" width="1683" height="562" viewBox="0 0 1683 562">
  <g fill="none" fill-rule="evenodd" transform="translate(5 4)">
    <path fill="#FFFFFF" d="M1449.83856,395.856853 L1396.03796,395.856853 L1357.58411,363.431502 L1303.25646,363.431502 L1303.25646,395.851903 L1263.74744,395.851903 L1263.74744,329.93702 L1373.46033,329.93702 C1380.16417,329.93702 1385.691,328.922335 1390.04082,326.892967 C1395.56521,324.264687 1398.33106,320.381663 1398.33106,315.246371 C1398.33106,305.21337 1390.04082,300.199345 1373.46033,300.199345 L1272.74194,300.199345 L1243.63593,300.199345 L1243.63593,395.856853 L1204.12691,395.856853 L1204.12691,300.199345 L1151.73415,300.199345 L1177.13611,266.697438 L1177.13367,266.697438 L1298.40587,266.697438 L1369.75629,266.697438 C1389.62655,266.697438 1405.73915,270.521066 1418.08922,278.163371 C1431.9599,286.882232 1438.90012,299.300978 1438.90012,315.424559 C1438.90012,324.502272 1436.10746,332.711315 1430.52215,340.05664 C1424.93684,347.401964 1417.20708,353.044599 1407.32799,356.984544 L1451.16004,393.994731 L1531.32583,281.03171 C1533.91379,277.210558 1537.5033,273.864574 1542.08462,270.99871 C1547.14114,267.895261 1552.02219,266.346011 1556.73023,266.346011 C1561.55036,266.346011 1566.43386,267.897736 1571.37096,270.99871 C1575.71591,273.748257 1579.24937,277.089291 1581.9543,281.029236 L1661.50358,395.856853 L1512.10378,395.856853 L1535.91203,362.357421 L1589.01148,362.357421 L1556.02597,315.964074 L1498.6961,395.859328 L1449.8368,395.859328 Z M199.989087,245.101986 L199.991524,245.101986 L257.589451,245.101986 L157.609432,381.114232 C149.377675,392.394552 141.014328,398.037187 132.514515,398.037187 C124.009829,398.037187 115.644044,392.325256 107.414725,380.903871 L9.90325765,245.101986 L67.0942265,245.101986 L133.335741,338.279705 L199.989087,245.101986 Z M508.448453,284.253952 L508.450889,284.256427 C522.794323,295.962419 529.968477,311.244555 529.968477,330.115208 C529.968477,348.985862 522.706596,364.659022 508.187707,377.137165 C493.659071,389.615307 475.345972,395.851903 453.236224,395.851903 L368.04315,395.851903 L368.04315,315.246371 L407.552169,315.246371 L407.552169,362.538085 L453.238661,362.538085 C464.175347,362.538085 473.169844,359.701918 480.227028,354.024636 C487.279338,348.357252 490.812804,340.922834 490.812804,331.726329 C490.812804,322.532299 487.250096,314.979088 480.139301,309.064221 C473.018758,303.154303 464.05594,300.199345 453.236224,300.199345 L368.04315,300.199345 L393.089329,266.697438 L453.238661,266.697438 C475.696881,266.697438 494.100145,272.54796 508.448453,284.253952 Z M715.706925,395.856853 L566.302251,395.856853 L590.115372,362.357421 L643.209958,362.357421 L610.22201,315.964074 L552.897013,395.859328 L504.037713,395.859328 L585.531615,281.03171 C588.1147,277.210558 591.701777,273.864574 596.287971,270.99871 C601.342046,267.895261 606.225539,266.346011 610.928703,266.346011 C615.748838,266.346011 620.632331,267.897736 625.569435,270.99871 C629.916817,273.748257 633.450282,277.089291 636.155211,281.029236 L715.706925,395.856853 Z M817.129573,362.540559 L817.129573,362.538085 L915.730322,362.538085 L890.32836,395.859328 L777.61568,395.859328 L777.61568,266.697438 L915.732759,266.697438 L890.330797,300.199345 L817.13201,300.199345 L817.13201,313.810964 L909.562597,313.810964 L884.158198,347.132207 L817.129573,347.132207 L817.129573,362.540559 Z M1095.17433,229.473373 L1095.17433,229.473373 L1160.99426,229.473373 L1079.97312,314.058448 L1157.36332,395.653916 L1092.68141,395.653916 L1037.07684,336.183515 L981.248086,395.653916 L916.792799,395.653916 L993.956378,314.058448 L913.161858,229.473373 L978.750291,229.473373 L1037.07928,291.245374 L1095.17433,229.473373 Z"/>
    <polygon fill="#7ACBFE" points="344.178 189.852 229.425 189.852 268.252 244.472 280.047 244.472 280.047 400.446 344.18 400.446 344.18 189.852"/>
  </g>
</svg>
